Coordinates
version=1
nRows=26
nColumns=24
inDegrees=yes

Units are S.I. units (second, meters, Newtons, ...)
Angles are in degrees.

endheader
time	pelvis_tilt	pelvis_list	pelvis_rotation	pelvis_tx	pelvis_ty	pelvis_tz	hip_flexion_r	hip_adduction_r	hip_rotation_r	knee_angle_r	ankle_angle_r	subtalar_angle_r	mtp_angle_r	hip_flexion_l	hip_adduction_l	hip_rotation_l	knee_angle_l	ankle_angle_l	subtalar_angle_l	mtp_angle_l	lumbar_extension	lumbar_bending	lumbar_rotation
      2.49000000	      6.95449537	     -1.95792646	     -4.36620040	      1.10843272	      0.98623140	      0.02611212	    -19.72007682	     -2.41899439	    -10.79502346	    -35.30352023	    -12.77413831	      8.40703827	     29.78807941	     13.58034942	     -4.12462373	    -25.43211708	    -21.88615008	     -5.43032769	     -4.93322182	      9.37438169	    -13.23541328	    -10.80257103	    -16.82616742
      2.49500000	      6.95070973	     -2.07631131	     -4.01728398	      1.11478748	      0.98746399	      0.02509325	    -18.96678181	     -2.35873527	    -10.77228267	    -36.71581070	    -13.47922578	      7.79653032	     29.47336028	     13.21885709	     -4.10184174	    -25.11821439	    -21.89069762	     -5.16090584	     -4.80819676	      9.38126737	    -13.31127131	    -10.65040493	    -17.18389542
      2.50000000	      6.97208763	     -2.19703720	     -3.72467979	      1.12110351	      0.98875767	      0.02418262	    -18.19743244	     -2.29854672	    -10.66727632	    -38.18965286	    -13.53635972	      7.43440512	     25.70204782	     12.79998178	     -4.09458687	    -24.86889418	    -21.85623718	     -4.73208306	     -4.58601715	      8.64713846	    -13.40676712	    -10.50793626	    -17.46950601
      2.50500000	      6.98391216	     -2.32172436	     -3.41020737	      1.12740450	      0.99003451	      0.02325770	    -17.41497709	     -2.21767284	    -10.60166450	    -39.58531480	    -13.62137148	      6.89895924	     23.67869801	     12.39209412	     -4.09411616	    -24.59469069	    -21.81346036	     -4.39566592	     -4.39946685	      8.33095913	    -13.48851059	    -10.35179116	    -17.78472160
      2.51000000	      6.98523987	     -2.45451628	     -3.09025649	      1.13360743	      0.99128082	      0.02234483	    -16.60550328	     -2.11906782	    -10.56104156	    -40.91648215	    -13.74197779	      6.21692935	     23.44204681	     12.00397158	     -4.10892056	    -24.29904133	    -21.77273127	     -4.15023735	     -4.27264296	      8.33569560	    -13.57357518	    -10.18626821	    -18.12892545
      2.51500000	      7.01247279	     -2.59659015	     -2.78669833	      1.13983364	      0.99258641	      0.02147306	    -15.80855796	     -2.00414772	    -10.50051824	    -42.25120222	    -13.27768014	      5.77900944	     19.99719242	     11.56071779	     -4.13758647	    -24.03951543	    -21.69175216	     -3.74464947	     -4.02418512	      7.62206498	    -13.66918311	    -10.00550145	    -18.42565891
      2.52000000	      7.00718733	     -2.73433046	     -2.47402929	      1.14596601	      0.99383053	      0.02058897	    -14.96625409	     -1.89013073	    -10.49592542	    -43.49046294	    -13.06191119	      5.08802582	     19.82800575	     11.16359146	     -4.16502462	    -23.75427199	    -21.60121678	     -3.53545700	     -3.89116181	      7.62751329	    -13.73948043	     -9.82311571	    -18.75757695
      2.52500000	      7.03023878	     -2.87282349	     -2.17941166	      1.15213349	      0.99512207	      0.01976944	    -14.14660884	     -1.77375239	    -10.49048923	    -44.70738861	    -12.37601597	      4.60633087	     17.08033932	     10.71264707	     -4.20184969	    -23.49672547	    -21.48936076	     -3.16815289	     -3.62724901	      6.98075141	    -13.82728605	     -9.64795064	    -19.06404616
      2.53000000	      7.03873932	     -3.01782597	     -1.87684604	      1.15821729	      0.99637448	      0.01893636	    -13.30510081	     -1.64661891	    -10.52122053	    -45.82264230	    -11.89635234	      3.92058561	     16.97600268	     10.28287969	     -4.24604878	    -23.22339486	    -21.36116525	     -2.95239031	     -3.47936721	      6.98295637	    -13.90561402	     -9.45278504	    -19.36831362
      2.53500000	      7.08286682	     -3.15107435	     -1.58570249	      1.16433244	      0.99768794	      0.01814493	    -12.50105672	     -1.53967377	    -10.60159445	    -46.89222437	    -11.08307989	      3.36854067	     15.14220929	      9.79542087	     -4.28889152	    -23.00849664	    -21.20953698	     -2.66633308	     -3.18581171	      6.37821452	    -14.01464598	     -9.27279529	    -19.65756921
      2.54000000	      7.07552229	     -3.30594890	     -1.28278660	      1.17034954	      0.99888772	      0.01734043	    -11.63283689	     -1.40426162	    -10.69421919	    -47.86932301	    -10.41102043	      2.79179531	     15.10932856	      9.38471600	     -4.35500343	    -22.73684182	    -21.07889672	     -2.43747410	     -3.05661534	      6.37819081	    -14.07191311	     -9.05960558	    -19.96945617
      2.54500000	      7.09531607	     -3.45108622	     -0.99809688	      1.17638769	      1.00014170	      0.01657274	    -10.79738946	     -1.28636816	    -10.81737931	    -48.75983164	     -9.67913329	      2.19042208	     15.01640797	      8.92352526	     -4.41834810	    -22.52234132	    -20.90555354	     -2.23994050	     -2.85685247	      6.32916574	    -14.15761412	     -8.85689259	    -20.26216534
      2.55000000	      7.12054968	     -3.59942990	     -0.71317188	      1.18239855	      1.00136644	      0.01582873	     -9.96313432	     -1.16850403	    -10.97030972	    -49.58196313	     -8.88516662	      1.63729948	     14.87305209	      8.45667261	     -4.49388115	    -22.31194976	    -20.73723078	     -2.02614101	     -2.62628145	      6.21431821	    -14.24258203	     -8.64822085	    -20.54112212
      2.55500000	      7.18899392	     -3.73070823	     -0.43957510	      1.18844198	      1.00264685	      0.01504866	     -9.19771345	     -1.08606885	    -11.14981618	    -50.28882322	     -7.98918104	      1.30224510	     14.91644986	      7.92245915	     -4.54651115	    -22.14878632	    -20.52196286	     -1.87535232	     -2.45873800	      6.18263286	    -14.36202590	     -8.44087511	    -20.78398404
      2.56000000	      7.19100078	     -3.87780627	     -0.15307506	      1.19436363	      1.00380463	      0.01436304	     -8.32687258	     -0.96808370	    -11.35503182	    -50.98296373	     -6.98539520	      0.88399234	     13.55503594	      7.49474070	     -4.64088481	    -21.97008785	    -20.38009220	     -1.48727918	     -2.08237013	      4.64264377	    -14.42731199	     -8.23322115	    -21.09622817
      2.56500000	      7.24440634	     -4.01086680	      0.11563634	      1.20034252	      1.00500239	      0.01362918	     -7.54149711	     -0.88864693	    -11.58360729	    -51.53848239	     -6.06415616	      0.59726609	     13.66818412	      6.98093533	     -4.70951622	    -21.82003712	    -20.16458591	     -1.34249474	     -1.91184073	      4.65782010	    -14.53737959	     -8.02138135	    -21.34626528
      2.57000000	      7.27203245	     -4.14255230	      0.38801906	      1.20629594	      1.00613357	      0.01293147	     -6.72626047	     -0.80924807	    -11.84086287	    -52.01805113	     -5.16332487	      0.29543568	     13.78236070	      6.50528717	     -4.78887159	    -21.68049195	    -19.96571275	     -1.19320861	     -1.69528364	      4.65324250	    -14.61255373	     -7.81228776	    -21.60050559
      2.57500000	      7.29913243	     -4.27546837	      0.65212588	      1.21218275	      1.00723362	      0.01224302	     -5.91095550	     -0.73229518	    -12.10574752	    -52.41553314	     -4.25708486	      0.02818456	     13.90786286	      6.03730775	     -4.87590023	    -21.55116608	    -19.77190809	     -1.05171987	     -1.47109753	      4.62805727	    -14.69986617	     -7.59955288	    -21.87979979
      2.58000000	      7.32487546	     -4.41376918	      0.93960151	      1.21807330	      1.00829014	      0.01158050	     -5.10522679	     -0.64126659	    -12.41367239	    -52.71590675	     -3.47569207	     -0.34965631	     14.44510435	      5.58058640	     -4.98046296	    -21.40027034	    -19.60854092	     -0.67404637	     -1.06802275	      3.35209897	    -14.77037312	     -7.37815152	    -22.15831665
      2.58500000	      7.34490758	     -4.53625136	      1.18997156	      1.22394184	      1.00931116	      0.01092318	     -4.30273657	     -0.58591785	    -12.71091812	    -52.94125938	     -2.54939798	     -0.46138082	     14.59188105	      5.11714207	     -5.06576884	    -21.31419117	    -19.40212292	     -0.58992593	     -0.88981251	      3.34404120	    -14.83878535	     -7.16857177	    -22.40579087
      2.59000000	      7.36486897	     -4.65383477	      1.45191702	      1.22975484	      1.01027603	      0.01027117	     -3.49806539	     -0.53290328	    -13.02834601	    -53.09739334	     -1.66982860	     -0.58392672	     14.74525853	      4.66625687	     -5.15061156	    -21.20458409	    -19.20872592	     -0.46895485	     -0.67742389	      3.32118633	    -14.91107539	     -6.96119007	    -22.66737968
      2.59500000	      7.36059888	     -4.76573689	      1.73137402	      1.23562031	      1.01117136	      0.00960761	     -2.69733223	     -0.48821376	    -13.39073801	    -53.13990232	     -0.85102287	     -0.67841185	     14.94370057	      4.23999043	     -5.23254319	    -21.08008521	    -19.01492580	     -0.28583727	     -0.40842507	      3.24016316	    -14.94740605	     -6.76149935	    -22.98598125
      2.60000000	      7.40016393	     -4.88323438	      2.01285427	      1.24144063	      1.01208237	      0.00895470	     -1.95762775	     -0.43375658	    -13.75668908	    -53.07281902	     -0.23966541	     -0.87743978	     16.42536809	      3.77385947	     -5.32935577	    -20.96952673	    -18.83698932	      0.03664058	     -0.06116694	      1.59559053	    -15.03121111	     -6.54301935	    -23.25426587
      2.60500000	      7.40284265	     -4.99221169	      2.25728643	      1.24717612	      1.01288846	      0.00836219	     -1.16827991	     -0.39102820	    -14.10344791	    -52.97521523	      0.52399931	     -0.97893810	     16.56436992	      3.35690494	     -5.41942470	    -20.88364160	    -18.65832395	      0.16537877	      0.13148862	      1.60033435	    -15.08058118	     -6.34517776	    -23.51333930
      2.61000000	      7.40650708	     -5.09437446	      2.53050440	      1.25293572	      1.01364490	      0.00773942	     -0.40260566	     -0.35598843	    -14.49348164	    -52.78800320	      1.22524373	     -1.06140383	     16.73210714	      2.94220084	     -5.50580008	    -20.77256160	    -18.48291928	      0.29604689	      0.34906016	      1.56693050	    -15.12579839	     -6.14698027	    -23.80346224
      2.61500000	      7.41311604	     -5.19714299	      2.80920892	      1.25863627	      1.01434843	      0.00710335	      0.35100285	     -0.32050590	    -14.89576048	    -52.52515087	      1.84398054	     -1.14480689	     16.95364508	      2.53872568	     -5.59334446	    -20.62558583	    -18.31512959	      0.42115341	      0.55420712	      1.46814809	    -15.17774059	     -5.94069689	    -24.10902203
